<svg id="visual" viewBox="0 0 1920 1080" width="1920" height="1080" xmlns="http://www.w3.org/2000/svg" xmlns:xlink="http://www.w3.org/1999/xlink" version="1.1"><rect x="0" y="0" width="1920" height="1080" fill="#001122"></rect><path d="M0 694L213 608L427 682L640 759L853 758L1067 743L1280 640L1493 737L1707 728L1920 586L1920 1081L1707 1081L1493 1081L1280 1081L1067 1081L853 1081L640 1081L427 1081L213 1081L0 1081Z" fill="#a8a89e"></path><path d="M0 801L213 759L427 721L640 760L853 674L1067 811L1280 701L1493 772L1707 848L1920 670L1920 1081L1707 1081L1493 1081L1280 1081L1067 1081L853 1081L640 1081L427 1081L213 1081L0 1081Z" fill="#758177"></path><path d="M0 816L213 831L427 847L640 790L853 890L1067 854L1280 832L1493 775L1707 847L1920 843L1920 1081L1707 1081L1493 1081L1280 1081L1067 1081L853 1081L640 1081L427 1081L213 1081L0 1081Z" fill="#445b58"></path><path d="M0 954L213 855L427 926L640 908L853 910L1067 937L1280 961L1493 958L1707 955L1920 883L1920 1081L1707 1081L1493 1081L1280 1081L1067 1081L853 1081L640 1081L427 1081L213 1081L0 1081Z" fill="#1a363e"></path><path d="M0 1005L213 1025L427 941L640 932L853 1041L1067 932L1280 1047L1493 1035L1707 928L1920 984L1920 1081L1707 1081L1493 1081L1280 1081L1067 1081L853 1081L640 1081L427 1081L213 1081L0 1081Z" fill="#001122"></path></svg>